<svg xmlns="http://www.w3.org/2000/svg" width="940" height="1140" viewBox="0 0 940 1140" font-family="Georgia, 'Times New Roman', serif">
<rect width="940" height="1140" fill="#fcfaf5"/>
<text x="470.0" y="44" text-anchor="middle" font-size="26" fill="#2b2b2b" font-weight="bold">Active Rio Texas clergy: churches served over a career</text>
<text x="470.0" y="70" text-anchor="middle" font-size="14" fill="#666">237 clergy currently serving a local church (extension ministry, leave, and retired excluded) · 2025 Journal clergy records</text>
<text x="90" y="118" font-size="16" fill="#2b2b2b" font-weight="bold">A &#183; Each dot is one clergyperson</text>
<line x1="90.0" y1="130" x2="90.0" y2="570" stroke="#e6e0d4"/>
<text x="90.0" y="590" text-anchor="middle" font-size="12" fill="#666">0</text>
<line x1="221.66666666666666" y1="130" x2="221.66666666666666" y2="570" stroke="#e6e0d4"/>
<text x="221.66666666666666" y="590" text-anchor="middle" font-size="12" fill="#666">10</text>
<line x1="353.3333333333333" y1="130" x2="353.3333333333333" y2="570" stroke="#e6e0d4"/>
<text x="353.3333333333333" y="590" text-anchor="middle" font-size="12" fill="#666">20</text>
<line x1="485.0" y1="130" x2="485.0" y2="570" stroke="#e6e0d4"/>
<text x="485.0" y="590" text-anchor="middle" font-size="12" fill="#666">30</text>
<line x1="616.6666666666666" y1="130" x2="616.6666666666666" y2="570" stroke="#e6e0d4"/>
<text x="616.6666666666666" y="590" text-anchor="middle" font-size="12" fill="#666">40</text>
<line x1="748.3333333333334" y1="130" x2="748.3333333333334" y2="570" stroke="#e6e0d4"/>
<text x="748.3333333333334" y="590" text-anchor="middle" font-size="12" fill="#666">50</text>
<line x1="880.0" y1="130" x2="880.0" y2="570" stroke="#e6e0d4"/>
<text x="880.0" y="590" text-anchor="middle" font-size="12" fill="#666">60</text>
<line x1="90" y1="570.0" x2="880" y2="570.0" stroke="#e6e0d4"/>
<text x="82" y="574.0" text-anchor="end" font-size="12" fill="#666">0</text>
<line x1="90" y1="511.3333333333333" x2="880" y2="511.3333333333333" stroke="#e6e0d4"/>
<text x="82" y="515.3333333333333" text-anchor="end" font-size="12" fill="#666">2</text>
<line x1="90" y1="452.6666666666667" x2="880" y2="452.6666666666667" stroke="#e6e0d4"/>
<text x="82" y="456.6666666666667" text-anchor="end" font-size="12" fill="#666">4</text>
<line x1="90" y1="394.0" x2="880" y2="394.0" stroke="#e6e0d4"/>
<text x="82" y="398.0" text-anchor="end" font-size="12" fill="#666">6</text>
<line x1="90" y1="335.33333333333337" x2="880" y2="335.33333333333337" stroke="#e6e0d4"/>
<text x="82" y="339.33333333333337" text-anchor="end" font-size="12" fill="#666">8</text>
<line x1="90" y1="276.6666666666667" x2="880" y2="276.6666666666667" stroke="#e6e0d4"/>
<text x="82" y="280.6666666666667" text-anchor="end" font-size="12" fill="#666">10</text>
<line x1="90" y1="218.0" x2="880" y2="218.0" stroke="#e6e0d4"/>
<text x="82" y="222.0" text-anchor="end" font-size="12" fill="#666">12</text>
<line x1="90" y1="159.33333333333331" x2="880" y2="159.33333333333331" stroke="#e6e0d4"/>
<text x="82" y="163.33333333333331" text-anchor="end" font-size="12" fill="#666">14</text>
<text x="485.0" y="614" text-anchor="middle" font-size="14" fill="#444">Years since first appointment</text>
<text transform="translate(38,350.0) rotate(-90)" text-anchor="middle" font-size="14" fill="#444">Distinct churches served</text>
<circle cx="587.3" cy="156.7" r="4" fill="#3a6e8f" fill-opacity="0.62"/>
<circle cx="776.2" cy="219.3" r="4" fill="#b1471f" fill-opacity="0.62"/>
<circle cx="432.5" cy="311.2" r="4" fill="#b1471f" fill-opacity="0.62"/>
<circle cx="628.5" cy="303.2" r="4" fill="#b1471f" fill-opacity="0.62"/>
<circle cx="455.9" cy="307.1" r="4" fill="#b1471f" fill-opacity="0.62"/>
<circle cx="618.5" cy="340.3" r="4" fill="#b1471f" fill-opacity="0.62"/>
<circle cx="393.2" cy="332.3" r="4" fill="#b1471f" fill-opacity="0.62"/>
<circle cx="378.6" cy="365.5" r="4" fill="#b1471f" fill-opacity="0.62"/>
<circle cx="232.4" cy="369.5" r="4" fill="#2f6b4f" fill-opacity="0.62"/>
<circle cx="526.6" cy="361.4" r="4" fill="#b1471f" fill-opacity="0.62"/>
<circle cx="235.5" cy="453.3" r="4" fill="#7a5197" fill-opacity="0.62"/>
<circle cx="365.7" cy="369.2" r="4" fill="#2f6b4f" fill-opacity="0.62"/>
<circle cx="456.5" cy="390.5" r="4" fill="#b1471f" fill-opacity="0.62"/>
<circle cx="526.9" cy="394.4" r="4" fill="#b1471f" fill-opacity="0.62"/>
<circle cx="472.8" cy="398.3" r="4" fill="#b1471f" fill-opacity="0.62"/>
<circle cx="379.2" cy="390.3" r="4" fill="#2f6b4f" fill-opacity="0.62"/>
<circle cx="338.2" cy="394.2" r="4" fill="#2f6b4f" fill-opacity="0.62"/>
<circle cx="316.5" cy="398.1" r="4" fill="#b1471f" fill-opacity="0.62"/>
<circle cx="538.9" cy="390.0" r="4" fill="#b1471f" fill-opacity="0.62"/>
<circle cx="392.6" cy="394.0" r="4" fill="#b1471f" fill-opacity="0.62"/>
<circle cx="233.2" cy="397.9" r="4" fill="#b1471f" fill-opacity="0.62"/>
<circle cx="422.1" cy="389.8" r="4" fill="#b1471f" fill-opacity="0.62"/>
<circle cx="394.3" cy="393.7" r="4" fill="#b1471f" fill-opacity="0.62"/>
<circle cx="274.4" cy="427.0" r="4" fill="#b1471f" fill-opacity="0.62"/>
<circle cx="457.3" cy="389.6" r="4" fill="#b1471f" fill-opacity="0.62"/>
<circle cx="271.5" cy="393.5" r="4" fill="#2f6b4f" fill-opacity="0.62"/>
<circle cx="144.4" cy="397.4" r="4" fill="#2f6b4f" fill-opacity="0.62"/>
<circle cx="353.6" cy="418.7" r="4" fill="#b1471f" fill-opacity="0.62"/>
<circle cx="418.0" cy="422.6" r="4" fill="#b1471f" fill-opacity="0.62"/>
<circle cx="377.1" cy="426.5" r="4" fill="#b1471f" fill-opacity="0.62"/>
<circle cx="171.0" cy="418.4" r="4" fill="#2f6b4f" fill-opacity="0.62"/>
<circle cx="485.5" cy="422.4" r="4" fill="#b1471f" fill-opacity="0.62"/>
<circle cx="273.4" cy="426.3" r="4" fill="#b1471f" fill-opacity="0.62"/>
<circle cx="179.8" cy="418.2" r="4" fill="#c98a2b" fill-opacity="0.62"/>
<circle cx="210.7" cy="422.1" r="4" fill="#2f6b4f" fill-opacity="0.62"/>
<circle cx="327.8" cy="426.1" r="4" fill="#b1471f" fill-opacity="0.62"/>
<circle cx="365.9" cy="418.0" r="4" fill="#b1471f" fill-opacity="0.62"/>
<circle cx="245.9" cy="421.9" r="4" fill="#b1471f" fill-opacity="0.62"/>
<circle cx="250.5" cy="425.8" r="4" fill="#9a9a9a" fill-opacity="0.62"/>
<circle cx="499.2" cy="417.8" r="4" fill="#7a5197" fill-opacity="0.62"/>
<circle cx="287.1" cy="421.7" r="4" fill="#2f6b4f" fill-opacity="0.62"/>
<circle cx="219.9" cy="425.6" r="4" fill="#b1471f" fill-opacity="0.62"/>
<circle cx="290.3" cy="417.5" r="4" fill="#b1471f" fill-opacity="0.62"/>
<circle cx="446.8" cy="421.5" r="4" fill="#b1471f" fill-opacity="0.62"/>
<circle cx="234.7" cy="454.7" r="4" fill="#2f6b4f" fill-opacity="0.62"/>
<circle cx="470.3" cy="429.3" r="4" fill="#b1471f" fill-opacity="0.62"/>
<circle cx="271.4" cy="421.2" r="4" fill="#b1471f" fill-opacity="0.62"/>
<circle cx="697.3" cy="425.2" r="4" fill="#9a9a9a" fill-opacity="0.62"/>
<circle cx="445.7" cy="429.1" r="4" fill="#b1471f" fill-opacity="0.62"/>
<circle cx="312.6" cy="421.0" r="4" fill="#b1471f" fill-opacity="0.62"/>
<circle cx="192.6" cy="454.3" r="4" fill="#2f6b4f" fill-opacity="0.62"/>
<circle cx="421.0" cy="458.2" r="4" fill="#b1471f" fill-opacity="0.62"/>
<circle cx="353.8" cy="479.4" r="4" fill="#b1471f" fill-opacity="0.62"/>
<circle cx="181.2" cy="454.0" r="4" fill="#c98a2b" fill-opacity="0.62"/>
<circle cx="192.9" cy="458.0" r="4" fill="#b1471f" fill-opacity="0.62"/>
<circle cx="408.1" cy="449.9" r="4" fill="#2f6b4f" fill-opacity="0.62"/>
<circle cx="222.4" cy="453.8" r="4" fill="#3a6e8f" fill-opacity="0.62"/>
<circle cx="181.4" cy="457.7" r="4" fill="#2f6b4f" fill-opacity="0.62"/>
<circle cx="298.5" cy="449.7" r="4" fill="#6a8a3a" fill-opacity="0.62"/>
<circle cx="184.6" cy="453.6" r="4" fill="#c98a2b" fill-opacity="0.62"/>
<circle cx="314.8" cy="457.5" r="4" fill="#b1471f" fill-opacity="0.62"/>
<circle cx="313.4" cy="449.4" r="4" fill="#b1471f" fill-opacity="0.62"/>
<circle cx="259.3" cy="453.4" r="4" fill="#6a8a3a" fill-opacity="0.62"/>
<circle cx="290.2" cy="457.3" r="4" fill="#7a5197" fill-opacity="0.62"/>
<circle cx="209.7" cy="449.2" r="4" fill="#b1471f" fill-opacity="0.62"/>
<circle cx="300.5" cy="453.1" r="4" fill="#b1471f" fill-opacity="0.62"/>
<circle cx="285.9" cy="457.0" r="4" fill="#b1471f" fill-opacity="0.62"/>
<circle cx="356.3" cy="449.0" r="4" fill="#b1471f" fill-opacity="0.62"/>
<circle cx="223.2" cy="452.9" r="4" fill="#3a6e8f" fill-opacity="0.62"/>
<circle cx="274.4" cy="456.8" r="4" fill="#b1471f" fill-opacity="0.62"/>
<circle cx="286.1" cy="448.7" r="4" fill="#b1471f" fill-opacity="0.62"/>
<circle cx="271.5" cy="482.0" r="4" fill="#2f6b4f" fill-opacity="0.62"/>
<circle cx="210.3" cy="456.6" r="4" fill="#b1471f" fill-opacity="0.62"/>
<circle cx="314.2" cy="448.5" r="4" fill="#2f6b4f" fill-opacity="0.62"/>
<circle cx="457.6" cy="452.4" r="4" fill="#b1471f" fill-opacity="0.62"/>
<circle cx="271.8" cy="456.4" r="4" fill="#b1471f" fill-opacity="0.62"/>
<circle cx="460.7" cy="448.3" r="4" fill="#b1471f" fill-opacity="0.62"/>
<circle cx="248.6" cy="452.2" r="4" fill="#b1471f" fill-opacity="0.62"/>
<circle cx="378.8" cy="456.1" r="4" fill="#b1471f" fill-opacity="0.62"/>
<circle cx="219.4" cy="448.1" r="4" fill="#b1471f" fill-opacity="0.62"/>
<circle cx="355.6" cy="452.0" r="4" fill="#b1471f" fill-opacity="0.62"/>
<circle cx="248.8" cy="455.9" r="4" fill="#b1471f" fill-opacity="0.62"/>
<circle cx="128.9" cy="477.2" r="4" fill="#6a8a3a" fill-opacity="0.62"/>
<circle cx="259.1" cy="481.1" r="4" fill="#2f6b4f" fill-opacity="0.62"/>
<circle cx="250.5" cy="485.0" r="4" fill="#b1471f" fill-opacity="0.62"/>
<circle cx="262.3" cy="476.9" r="4" fill="#6a8a3a" fill-opacity="0.62"/>
<circle cx="392.5" cy="480.9" r="4" fill="#b1471f" fill-opacity="0.62"/>
<circle cx="154.1" cy="484.8" r="4" fill="#b1471f" fill-opacity="0.62"/>
<circle cx="158.6" cy="506.0" r="4" fill="#6a8a3a" fill-opacity="0.62"/>
<circle cx="354.7" cy="480.6" r="4" fill="#b1471f" fill-opacity="0.62"/>
<circle cx="392.8" cy="484.6" r="4" fill="#b1471f" fill-opacity="0.62"/>
<circle cx="746.8" cy="476.5" r="4" fill="#9a9a9a" fill-opacity="0.62"/>
<circle cx="179.2" cy="480.4" r="4" fill="#6a8a3a" fill-opacity="0.62"/>
<circle cx="249.6" cy="484.3" r="4" fill="#6a8a3a" fill-opacity="0.62"/>
<circle cx="353.5" cy="476.3" r="4" fill="#b1471f" fill-opacity="0.62"/>
<circle cx="457.4" cy="480.2" r="4" fill="#b1471f" fill-opacity="0.62"/>
<circle cx="258.5" cy="484.1" r="4" fill="#7a5197" fill-opacity="0.62"/>
<circle cx="328.9" cy="476.0" r="4" fill="#b1471f" fill-opacity="0.62"/>
<circle cx="169.5" cy="509.3" r="4" fill="#6a8a3a" fill-opacity="0.62"/>
<circle cx="102.2" cy="483.9" r="4" fill="#6a8a3a" fill-opacity="0.62"/>
<circle cx="179.8" cy="487.8" r="4" fill="#b1471f" fill-opacity="0.62"/>
<circle cx="171.2" cy="479.7" r="4" fill="#b1471f" fill-opacity="0.62"/>
<circle cx="459.4" cy="483.6" r="4" fill="#7a5197" fill-opacity="0.62"/>
<circle cx="234.1" cy="487.6" r="4" fill="#b1471f" fill-opacity="0.62"/>
<circle cx="206.4" cy="479.5" r="4" fill="#b1471f" fill-opacity="0.62"/>
<circle cx="158.3" cy="483.4" r="4" fill="#c98a2b" fill-opacity="0.62"/>
<circle cx="209.5" cy="487.3" r="4" fill="#6a8a3a" fill-opacity="0.62"/>
<circle cx="129.1" cy="479.3" r="4" fill="#2f6b4f" fill-opacity="0.62"/>
<circle cx="456.8" cy="512.5" r="4" fill="#b1471f" fill-opacity="0.62"/>
<circle cx="277.0" cy="516.4" r="4" fill="#7a5197" fill-opacity="0.62"/>
<circle cx="354.6" cy="479.0" r="4" fill="#b1471f" fill-opacity="0.62"/>
<circle cx="208.3" cy="483.0" r="4" fill="#b1471f" fill-opacity="0.62"/>
<circle cx="220.1" cy="486.9" r="4" fill="#6a8a3a" fill-opacity="0.62"/>
<circle cx="224.6" cy="478.8" r="4" fill="#b1471f" fill-opacity="0.62"/>
<circle cx="236.4" cy="512.1" r="4" fill="#2f6b4f" fill-opacity="0.62"/>
<circle cx="195.4" cy="516.0" r="4" fill="#9a9a9a" fill-opacity="0.62"/>
<circle cx="180.8" cy="507.9" r="4" fill="#9a9a9a" fill-opacity="0.62"/>
<circle cx="100.4" cy="511.8" r="4" fill="#2f6b4f" fill-opacity="0.62"/>
<circle cx="184.0" cy="515.8" r="4" fill="#6a8a3a" fill-opacity="0.62"/>
<circle cx="287.9" cy="507.7" r="4" fill="#8a8a8a" fill-opacity="0.62"/>
<circle cx="167.9" cy="511.6" r="4" fill="#b1471f" fill-opacity="0.62"/>
<circle cx="127.0" cy="515.5" r="4" fill="#c98a2b" fill-opacity="0.62"/>
<circle cx="157.9" cy="507.5" r="4" fill="#2f6b4f" fill-opacity="0.62"/>
<circle cx="156.5" cy="511.4" r="4" fill="#6a8a3a" fill-opacity="0.62"/>
<circle cx="128.7" cy="515.3" r="4" fill="#6a8a3a" fill-opacity="0.62"/>
<circle cx="127.2" cy="507.2" r="4" fill="#2f6b4f" fill-opacity="0.62"/>
<circle cx="171.3" cy="511.2" r="4" fill="#8a8a8a" fill-opacity="0.62"/>
<circle cx="156.7" cy="515.1" r="4" fill="#6a8a3a" fill-opacity="0.62"/>
<circle cx="286.9" cy="507.0" r="4" fill="#7a5197" fill-opacity="0.62"/>
<circle cx="153.8" cy="510.9" r="4" fill="#6a8a3a" fill-opacity="0.62"/>
<circle cx="171.6" cy="514.8" r="4" fill="#9a9a9a" fill-opacity="0.62"/>
<circle cx="117.5" cy="506.8" r="4" fill="#9a9a9a" fill-opacity="0.62"/>
<circle cx="181.9" cy="510.7" r="4" fill="#c98a2b" fill-opacity="0.62"/>
<circle cx="154.1" cy="514.6" r="4" fill="#b1471f" fill-opacity="0.62"/>
<circle cx="132.3" cy="506.5" r="4" fill="#6a8a3a" fill-opacity="0.62"/>
<circle cx="130.9" cy="510.5" r="4" fill="#9a9a9a" fill-opacity="0.62"/>
<circle cx="155.8" cy="514.4" r="4" fill="#c98a2b" fill-opacity="0.62"/>
<circle cx="101.7" cy="506.3" r="4" fill="#6a8a3a" fill-opacity="0.62"/>
<circle cx="271.4" cy="510.2" r="4" fill="#2f6b4f" fill-opacity="0.62"/>
<circle cx="197.0" cy="514.2" r="4" fill="#2f6b4f" fill-opacity="0.62"/>
<circle cx="287.7" cy="506.1" r="4" fill="#7a5197" fill-opacity="0.62"/>
<circle cx="194.1" cy="510.0" r="4" fill="#6a8a3a" fill-opacity="0.62"/>
<circle cx="298.0" cy="513.9" r="4" fill="#b1471f" fill-opacity="0.62"/>
<circle cx="118.3" cy="505.9" r="4" fill="#c98a2b" fill-opacity="0.62"/>
<circle cx="182.7" cy="509.8" r="4" fill="#8a8a8a" fill-opacity="0.62"/>
<circle cx="168.1" cy="513.7" r="4" fill="#9a9a9a" fill-opacity="0.62"/>
<circle cx="179.8" cy="505.6" r="4" fill="#2f6b4f" fill-opacity="0.62"/>
<circle cx="276.5" cy="509.6" r="4" fill="#7a5197" fill-opacity="0.62"/>
<circle cx="169.8" cy="513.5" r="4" fill="#6a8a3a" fill-opacity="0.62"/>
<circle cx="155.2" cy="505.4" r="4" fill="#2f6b4f" fill-opacity="0.62"/>
<circle cx="219.6" cy="509.3" r="4" fill="#7a5197" fill-opacity="0.62"/>
<circle cx="395.3" cy="513.3" r="4" fill="#b1471f" fill-opacity="0.62"/>
<circle cx="314.9" cy="517.2" r="4" fill="#b1471f" fill-opacity="0.62"/>
<circle cx="194.9" cy="509.1" r="4" fill="#6a8a3a" fill-opacity="0.62"/>
<circle cx="127.7" cy="513.0" r="4" fill="#b1471f" fill-opacity="0.62"/>
<circle cx="237.6" cy="516.9" r="4" fill="#7a5197" fill-opacity="0.62"/>
<circle cx="275.6" cy="508.9" r="4" fill="#b1471f" fill-opacity="0.62"/>
<circle cx="129.4" cy="542.1" r="4" fill="#6a8a3a" fill-opacity="0.62"/>
<circle cx="101.6" cy="546.1" r="4" fill="#a8852f" fill-opacity="0.62"/>
<circle cx="198.3" cy="538.0" r="4" fill="#9a9a9a" fill-opacity="0.62"/>
<circle cx="104.7" cy="541.9" r="4" fill="#a8852f" fill-opacity="0.62"/>
<circle cx="90.1" cy="545.8" r="4" fill="#9a9a9a" fill-opacity="0.62"/>
<circle cx="180.9" cy="537.8" r="4" fill="#9a9a9a" fill-opacity="0.62"/>
<circle cx="100.4" cy="541.7" r="4" fill="#a8852f" fill-opacity="0.62"/>
<circle cx="118.2" cy="545.6" r="4" fill="#6a8a3a" fill-opacity="0.62"/>
<circle cx="129.9" cy="537.5" r="4" fill="#6a8a3a" fill-opacity="0.62"/>
<circle cx="102.1" cy="541.4" r="4" fill="#6a8a3a" fill-opacity="0.62"/>
<circle cx="153.4" cy="545.4" r="4" fill="#2f6b4f" fill-opacity="0.62"/>
<circle cx="105.3" cy="537.3" r="4" fill="#9a9a9a" fill-opacity="0.62"/>
<circle cx="103.8" cy="541.2" r="4" fill="#a8852f" fill-opacity="0.62"/>
<circle cx="155.1" cy="545.1" r="4" fill="#6a8a3a" fill-opacity="0.62"/>
<circle cx="140.5" cy="537.1" r="4" fill="#6a8a3a" fill-opacity="0.62"/>
<circle cx="158.2" cy="541.0" r="4" fill="#9a9a9a" fill-opacity="0.62"/>
<circle cx="117.3" cy="544.9" r="4" fill="#2f6b4f" fill-opacity="0.62"/>
<circle cx="89.5" cy="536.8" r="4" fill="#9a9a9a" fill-opacity="0.62"/>
<circle cx="101.2" cy="540.8" r="4" fill="#6a8a3a" fill-opacity="0.62"/>
<circle cx="237.4" cy="544.7" r="4" fill="#8a8a8a" fill-opacity="0.62"/>
<circle cx="143.8" cy="536.6" r="4" fill="#9a9a9a" fill-opacity="0.62"/>
<circle cx="260.9" cy="540.5" r="4" fill="#b1471f" fill-opacity="0.62"/>
<circle cx="496.5" cy="544.5" r="4" fill="#b1471f" fill-opacity="0.62"/>
<circle cx="264.0" cy="536.4" r="4" fill="#9a9a9a" fill-opacity="0.62"/>
<circle cx="130.9" cy="540.3" r="4" fill="#c98a2b" fill-opacity="0.62"/>
<circle cx="116.3" cy="544.2" r="4" fill="#7a5197" fill-opacity="0.62"/>
<circle cx="128.1" cy="536.2" r="4" fill="#6a8a3a" fill-opacity="0.62"/>
<circle cx="100.3" cy="540.1" r="4" fill="#2f6b4f" fill-opacity="0.62"/>
<circle cx="118.0" cy="544.0" r="4" fill="#6a8a3a" fill-opacity="0.62"/>
<circle cx="129.8" cy="535.9" r="4" fill="#2f6b4f" fill-opacity="0.62"/>
<circle cx="141.5" cy="539.9" r="4" fill="#2f6b4f" fill-opacity="0.62"/>
<circle cx="153.2" cy="543.8" r="4" fill="#6a8a3a" fill-opacity="0.62"/>
<circle cx="92.0" cy="535.7" r="4" fill="#8a8a8a" fill-opacity="0.62"/>
<circle cx="156.4" cy="539.6" r="4" fill="#8a8a8a" fill-opacity="0.62"/>
<circle cx="141.8" cy="543.5" r="4" fill="#7a5197" fill-opacity="0.62"/>
<circle cx="87.7" cy="535.5" r="4" fill="#6a8a3a" fill-opacity="0.62"/>
<circle cx="131.7" cy="539.4" r="4" fill="#7a5197" fill-opacity="0.62"/>
<circle cx="104.0" cy="543.3" r="4" fill="#9a9a9a" fill-opacity="0.62"/>
<circle cx="128.9" cy="535.2" r="4" fill="#8a8a8a" fill-opacity="0.62"/>
<circle cx="114.3" cy="539.2" r="4" fill="#6a8a3a" fill-opacity="0.62"/>
<circle cx="237.3" cy="543.1" r="4" fill="#b1471f" fill-opacity="0.62"/>
<circle cx="91.1" cy="535.0" r="4" fill="#c98a2b" fill-opacity="0.62"/>
<circle cx="247.6" cy="538.9" r="4" fill="#8a8a8a" fill-opacity="0.62"/>
<circle cx="88.2" cy="542.9" r="4" fill="#6a8a3a" fill-opacity="0.62"/>
<circle cx="184.9" cy="534.8" r="4" fill="#8a8a8a" fill-opacity="0.62"/>
<circle cx="117.7" cy="538.7" r="4" fill="#6a8a3a" fill-opacity="0.62"/>
<circle cx="116.2" cy="542.6" r="4" fill="#7a5197" fill-opacity="0.62"/>
<circle cx="167.5" cy="546.6" r="4" fill="#8a8a8a" fill-opacity="0.62"/>
<circle cx="139.7" cy="538.5" r="4" fill="#6a8a3a" fill-opacity="0.62"/>
<circle cx="131.1" cy="542.4" r="4" fill="#9a9a9a" fill-opacity="0.62"/>
<circle cx="129.7" cy="546.3" r="4" fill="#6a8a3a" fill-opacity="0.62"/>
<circle cx="233.6" cy="538.3" r="4" fill="#8a8a8a" fill-opacity="0.62"/>
<circle cx="126.8" cy="542.2" r="4" fill="#9a9a9a" fill-opacity="0.62"/>
<circle cx="157.7" cy="546.1" r="4" fill="#6a8a3a" fill-opacity="0.62"/>
<circle cx="182.6" cy="538.0" r="4" fill="#9a9a9a" fill-opacity="0.62"/>
<circle cx="154.8" cy="542.0" r="4" fill="#9a9a9a" fill-opacity="0.62"/>
<circle cx="245.6" cy="545.9" r="4" fill="#6a8a3a" fill-opacity="0.62"/>
<circle cx="131.6" cy="537.8" r="4" fill="#6a8a3a" fill-opacity="0.62"/>
<circle cx="130.2" cy="541.7" r="4" fill="#8a8a8a" fill-opacity="0.62"/>
<circle cx="115.6" cy="545.6" r="4" fill="#c98a2b" fill-opacity="0.62"/>
<circle cx="87.8" cy="537.6" r="4" fill="#c98a2b" fill-opacity="0.62"/>
<circle cx="131.9" cy="541.5" r="4" fill="#8a8a8a" fill-opacity="0.62"/>
<circle cx="91.0" cy="545.4" r="4" fill="#6a8a3a" fill-opacity="0.62"/>
<circle cx="89.5" cy="537.3" r="4" fill="#2f6b4f" fill-opacity="0.62"/>
<circle cx="153.9" cy="541.3" r="4" fill="#7a5197" fill-opacity="0.62"/>
<circle cx="158.5" cy="545.2" r="4" fill="#9a9a9a" fill-opacity="0.62"/>
<circle cx="196.6" cy="537.1" r="4" fill="#a8852f" fill-opacity="0.62"/>
<circle cx="103.0" cy="541.0" r="4" fill="#9a9a9a" fill-opacity="0.62"/>
<circle cx="114.7" cy="545.0" r="4" fill="#9a9a9a" fill-opacity="0.62"/>
<circle cx="92.9" cy="536.9" r="4" fill="#2f6b4f" fill-opacity="0.62"/>
<circle cx="91.5" cy="540.8" r="4" fill="#9a9a9a" fill-opacity="0.62"/>
<circle cx="169.0" cy="544.7" r="4" fill="#7a5197" fill-opacity="0.62"/>
<circle cx="128.1" cy="536.7" r="4" fill="#2f6b4f" fill-opacity="0.62"/>
<circle cx="126.7" cy="540.6" r="4" fill="#6a8a3a" fill-opacity="0.62"/>
<circle cx="118.1" cy="544.5" r="4" fill="#2f6b4f" fill-opacity="0.62"/>
<circle cx="90.3" cy="536.4" r="4" fill="#8a8a8a" fill-opacity="0.62"/>
<circle cx="115.2" cy="540.4" r="4" fill="#6a8a3a" fill-opacity="0.62"/>
<circle cx="126.9" cy="544.3" r="4" fill="#9a9a9a" fill-opacity="0.62"/>
<circle cx="118.3" cy="536.2" r="4" fill="#6a8a3a" fill-opacity="0.62"/>
<circle cx="143.2" cy="540.1" r="4" fill="#9a9a9a" fill-opacity="0.62"/>
<line x1="90.0" y1="535.4" x2="880.0" y2="266.3" stroke="#2b2b2b" stroke-width="2" stroke-dasharray="6 4" stroke-opacity="0.7"/>
<text x="327.0" y="474.7" font-size="11.5" fill="#2b2b2b">trend: ~1 new church every 6.5 yrs</text>
<rect x="702" y="130" width="178" height="210" fill="#ffffff" stroke="#ddd" rx="4" fill-opacity="0.9"/>
<circle cx="712" cy="138" r="5" fill="#b1471f"/>
<text x="724" y="142" font-size="11.5" fill="#444">Full elder</text>
<circle cx="712" cy="154" r="5" fill="#6a8a3a"/>
<text x="724" y="158" font-size="11.5" fill="#444">Local pastor (PT)</text>
<circle cx="712" cy="170" r="5" fill="#2f6b4f"/>
<text x="724" y="174" font-size="11.5" fill="#444">Local pastor (FT)</text>
<circle cx="712" cy="186" r="5" fill="#7a5197"/>
<text x="724" y="190" font-size="11.5" fill="#444">Full deacon</text>
<circle cx="712" cy="202" r="5" fill="#8a8a8a"/>
<text x="724" y="206" font-size="11.5" fill="#444">Supply</text>
<circle cx="712" cy="218" r="5" fill="#9a9a9a"/>
<text x="724" y="222" font-size="11.5" fill="#444">Other-conf elder</text>
<circle cx="712" cy="234" r="5" fill="#c98a2b"/>
<text x="724" y="238" font-size="11.5" fill="#444">Provisional elder</text>
<circle cx="712" cy="250" r="5" fill="#9a9a9a"/>
<text x="724" y="254" font-size="11.5" fill="#444">Ordained, other denom</text>
<circle cx="712" cy="266" r="5" fill="#a8852f"/>
<text x="724" y="270" font-size="11.5" fill="#444">Provisional deacon</text>
<circle cx="712" cy="282" r="5" fill="#9a9a9a"/>
<text x="724" y="286" font-size="11.5" fill="#444">Full mem., other denom</text>
<circle cx="712" cy="298" r="5" fill="#3a6e8f"/>
<text x="724" y="302" font-size="11.5" fill="#444">Associate member</text>
<circle cx="712" cy="314" r="5" fill="#9a9a9a"/>
<text x="724" y="318" font-size="11.5" fill="#444">Other-conf deacon</text>
<circle cx="712" cy="330" r="5" fill="#9a9a9a"/>
<text x="724" y="334" font-size="11.5" fill="#444">Affiliate member</text>
<circle cx="712" cy="346" r="5" fill="#9a9a9a"/>
<text x="724" y="350" font-size="11.5" fill="#444">Provisional member</text>
<text x="90" y="638" font-size="16" fill="#2b2b2b" font-weight="bold">B &#183; Mobility: churches served per decade of service</text>
<text x="90" y="656" font-size="12" fill="#777">pooled across each class (classes with at least 3 clergy)</text>
<rect x="250" y="666.0" width="539.1" height="17" fill="#9a9a9a" fill-opacity="0.85" rx="2"/>
<text x="240" y="679" text-anchor="end" font-size="13" fill="#333">Ordained, other denom <tspan fill="#999">(7)</tspan></text>
<text x="797.1" y="679" font-size="13" fill="#333" font-weight="bold">6.0</text>
<rect x="250" y="696.9090909090909" width="524.2" height="17" fill="#c98a2b" fill-opacity="0.85" rx="2"/>
<text x="240" y="710" text-anchor="end" font-size="13" fill="#333">Provisional elder <tspan fill="#999">(12)</tspan></text>
<text x="782.2" y="710" font-size="13" fill="#333" font-weight="bold">5.8</text>
<rect x="250" y="727.8181818181819" width="374.4" height="17" fill="#a8852f" fill-opacity="0.85" rx="2"/>
<text x="240" y="741" text-anchor="end" font-size="13" fill="#333">Provisional deacon <tspan fill="#999">(5)</tspan></text>
<text x="632.4" y="741" font-size="13" fill="#333" font-weight="bold">4.2</text>
<rect x="250" y="758.7272727272727" width="340.8" height="17" fill="#3a6e8f" fill-opacity="0.85" rx="2"/>
<text x="240" y="772" text-anchor="end" font-size="13" fill="#333">Associate member <tspan fill="#999">(3)</tspan></text>
<text x="598.8" y="772" font-size="13" fill="#333" font-weight="bold">3.8</text>
<rect x="250" y="789.6363636363636" width="329.3" height="17" fill="#2f6b4f" fill-opacity="0.85" rx="2"/>
<text x="240" y="803" text-anchor="end" font-size="13" fill="#333">Local pastor (FT) <tspan fill="#999">(34)</tspan></text>
<text x="587.3" y="803" font-size="13" fill="#333" font-weight="bold">3.7</text>
<rect x="250" y="820.5454545454545" width="320.6" height="17" fill="#6a8a3a" fill-opacity="0.85" rx="2"/>
<text x="240" y="834" text-anchor="end" font-size="13" fill="#333">Local pastor (PT) <tspan fill="#999">(44)</tspan></text>
<text x="578.6" y="834" font-size="13" fill="#333" font-weight="bold">3.6</text>
<rect x="250" y="851.4545454545455" width="275.4" height="17" fill="#9a9a9a" fill-opacity="0.85" rx="2"/>
<text x="240" y="865" text-anchor="end" font-size="13" fill="#333">Other-conf elder <tspan fill="#999">(12)</tspan></text>
<text x="533.4" y="865" font-size="13" fill="#333" font-weight="bold">3.1</text>
<rect x="250" y="882.3636363636364" width="213.9" height="17" fill="#9a9a9a" fill-opacity="0.85" rx="2"/>
<text x="240" y="896" text-anchor="end" font-size="13" fill="#333">Full mem., other denom <tspan fill="#999">(4)</tspan></text>
<text x="471.9" y="896" font-size="13" fill="#333" font-weight="bold">2.4</text>
<rect x="250" y="913.2727272727273" width="204.1" height="17" fill="#b1471f" fill-opacity="0.85" rx="2"/>
<text x="240" y="927" text-anchor="end" font-size="13" fill="#333">Full elder <tspan fill="#999">(80)</tspan></text>
<text x="462.1" y="927" font-size="13" fill="#333" font-weight="bold">2.3</text>
<rect x="250" y="944.1818181818182" width="171.6" height="17" fill="#8a8a8a" fill-opacity="0.85" rx="2"/>
<text x="240" y="958" text-anchor="end" font-size="13" fill="#333">Supply <tspan fill="#999">(14)</tspan></text>
<text x="429.6" y="958" font-size="13" fill="#333" font-weight="bold">1.9</text>
<rect x="250" y="975.0909090909091" width="167.1" height="17" fill="#7a5197" fill-opacity="0.85" rx="2"/>
<text x="240" y="989" text-anchor="end" font-size="13" fill="#333">Full deacon <tspan fill="#999">(17)</tspan></text>
<text x="425.1" y="989" font-size="13" fill="#333" font-weight="bold">1.9</text>
<text x="560.0" y="1024" text-anchor="middle" font-size="13" fill="#444">churches per 10 years</text>
<text x="90" y="1118" font-size="11" fill="#999">Source: Rio Texas Annual Conference Journal 2025, Section I (Clergy Records). Gender/race not shown — not recorded in the journal.</text>
</svg>